<mxfile host="Electron" agent="Mozilla/5.0 (X11; Linux x86_64) AppleWebKit/537.36 (KHTML, like Gecko) draw.io/24.7.17 Chrome/128.0.6613.36 Electron/32.0.1 Safari/537.36" version="24.7.17">
  <diagram name="Page-1" id="acR1WmfLHcCQmbg5mVH3">
    <mxGraphModel dx="1720" dy="2028" grid="1" gridSize="10" guides="1" tooltips="1" connect="1" arrows="1" fold="1" page="1" pageScale="1" pageWidth="850" pageHeight="1100" math="0" shadow="0">
      <root>
        <mxCell id="0" />
        <mxCell id="1" parent="0" />
        <mxCell id="2" value="Software Release Process" style="whiteSpace=wrap;strokeWidth=2;labelPosition=center;verticalLabelPosition=top;align=center;verticalAlign=bottom;" parent="1" vertex="1">
          <mxGeometry x="2402" y="218" width="1699" height="709" as="geometry" />
        </mxCell>
        <mxCell id="3" value="Code Contribution Process" style="whiteSpace=wrap;strokeWidth=2;labelPosition=center;verticalLabelPosition=top;align=center;verticalAlign=bottom;" parent="1" vertex="1">
          <mxGeometry x="8" y="8" width="2063" height="289" as="geometry" />
        </mxCell>
        <mxCell id="6xC_1-eXzZIWzVH8nCW7-71" style="edgeStyle=orthogonalEdgeStyle;rounded=0;orthogonalLoop=1;jettySize=auto;html=1;" parent="1" source="4" target="13" edge="1">
          <mxGeometry relative="1" as="geometry" />
        </mxCell>
        <mxCell id="4" value="Software Development Cycle" style="whiteSpace=wrap;strokeWidth=2;labelPosition=center;verticalLabelPosition=bottom;align=center;verticalAlign=top;" parent="1" vertex="1">
          <mxGeometry x="460" y="290" width="1853" height="610" as="geometry" />
        </mxCell>
        <mxCell id="5" value="Requirements Gathering &#xa;(Business/Technical)" style="whiteSpace=wrap;strokeWidth=2;" parent="1" vertex="1">
          <mxGeometry x="524" y="781" width="234" height="49" as="geometry" />
        </mxCell>
        <mxCell id="6" value="Design /&#xa;Plan" style="rounded=1;arcSize=40;strokeWidth=2" parent="1" vertex="1">
          <mxGeometry x="855" y="743" width="80" height="49" as="geometry" />
        </mxCell>
        <mxCell id="7" value="Development" style="rounded=1;arcSize=40;strokeWidth=2" parent="1" vertex="1">
          <mxGeometry x="1042" y="681" width="125" height="49" as="geometry" />
        </mxCell>
        <mxCell id="8" value="Testing" style="rounded=1;arcSize=40;strokeWidth=2" parent="1" vertex="1">
          <mxGeometry x="1310" y="521" width="81" height="49" as="geometry" />
        </mxCell>
        <mxCell id="9" value="Bugs Found?" style="rhombus;strokeWidth=2;whiteSpace=wrap;" parent="1" vertex="1">
          <mxGeometry x="1467" y="590" width="144" height="144" as="geometry" />
        </mxCell>
        <mxCell id="10" value="Review" style="rounded=1;arcSize=40;strokeWidth=2" parent="1" vertex="1">
          <mxGeometry x="1721" y="638" width="83" height="49" as="geometry" />
        </mxCell>
        <mxCell id="11" value="Approved?" style="rhombus;strokeWidth=2;whiteSpace=wrap;" parent="1" vertex="1">
          <mxGeometry x="1919" y="599" width="127" height="127" as="geometry" />
        </mxCell>
        <mxCell id="12" value="Release Preparation" style="rounded=1;arcSize=40;strokeWidth=2" parent="1" vertex="1">
          <mxGeometry x="2151" y="415" width="176" height="49" as="geometry" />
        </mxCell>
        <mxCell id="13" value="Fork/Clone Repository" style="whiteSpace=wrap;strokeWidth=2;" parent="1" vertex="1">
          <mxGeometry x="33" y="147" width="173" height="49" as="geometry" />
        </mxCell>
        <mxCell id="14" value="Create Feature Branch&#xa;from &quot;devel&quot;" style="rounded=1;arcSize=40;strokeWidth=2" parent="1" vertex="1">
          <mxGeometry x="256" y="147" width="193" height="49" as="geometry" />
        </mxCell>
        <mxCell id="15" value="Write Code" style="rounded=1;arcSize=40;strokeWidth=2" parent="1" vertex="1">
          <mxGeometry x="586" y="147" width="110" height="49" as="geometry" />
        </mxCell>
        <mxCell id="16" value="Create Pull Request" style="rounded=1;arcSize=40;strokeWidth=2" parent="1" vertex="1">
          <mxGeometry x="808" y="93" width="174" height="49" as="geometry" />
        </mxCell>
        <mxCell id="17" value="Code Review" style="rhombus;strokeWidth=2;whiteSpace=wrap;" parent="1" vertex="1">
          <mxGeometry x="1032" y="45" width="145" height="145" as="geometry" />
        </mxCell>
        <mxCell id="18" value="Merge to &quot;devel&quot;" style="rounded=1;arcSize=40;strokeWidth=2" parent="1" vertex="1">
          <mxGeometry x="1285" y="93" width="132" height="49" as="geometry" />
        </mxCell>
        <mxCell id="19" value="Build and Test&#xa;(Generate .deb)" style="rounded=1;arcSize=40;strokeWidth=2" parent="1" vertex="1">
          <mxGeometry x="1473" y="93" width="131" height="49" as="geometry" />
        </mxCell>
        <mxCell id="20" value="Tests Passed?" style="rhombus;strokeWidth=2;whiteSpace=wrap;" parent="1" vertex="1">
          <mxGeometry x="1686" y="95" width="153" height="153" as="geometry" />
        </mxCell>
        <mxCell id="21" value="Notify &quot;main&quot;&#xa;Maintainer" style="rounded=1;arcSize=40;strokeWidth=2" parent="1" vertex="1">
          <mxGeometry x="1925" y="147" width="114" height="49" as="geometry" />
        </mxCell>
        <mxCell id="22" value="Release Conditions Met?" style="rhombus;strokeWidth=2;whiteSpace=wrap;" parent="1" vertex="1">
          <mxGeometry x="2427" y="253" width="228" height="228" as="geometry" />
        </mxCell>
        <mxCell id="6xC_1-eXzZIWzVH8nCW7-74" value="" style="edgeStyle=orthogonalEdgeStyle;rounded=0;orthogonalLoop=1;jettySize=auto;html=1;" parent="1" source="23" target="6xC_1-eXzZIWzVH8nCW7-73" edge="1">
          <mxGeometry relative="1" as="geometry" />
        </mxCell>
        <mxCell id="23" value="Build and Export Modules" style="rounded=1;arcSize=40;strokeWidth=2" parent="1" vertex="1">
          <mxGeometry x="2735" y="638" width="212" height="49" as="geometry" />
        </mxCell>
        <mxCell id="HBGhVWQaQl0VbPI2pzWm-71" style="edgeStyle=orthogonalEdgeStyle;rounded=0;orthogonalLoop=1;jettySize=auto;html=1;" edge="1" parent="1" source="24" target="HBGhVWQaQl0VbPI2pzWm-70">
          <mxGeometry relative="1" as="geometry" />
        </mxCell>
        <mxCell id="24" value="Draft a new release&#xa;with new version" style="rounded=1;arcSize=40;strokeWidth=2" parent="1" vertex="1">
          <mxGeometry x="2997" y="638" width="151" height="49" as="geometry" />
        </mxCell>
        <mxCell id="25" value="Create/Update Release Notes" style="rounded=1;arcSize=40;strokeWidth=2" parent="1" vertex="1">
          <mxGeometry x="3230" y="767" width="187" height="49" as="geometry" />
        </mxCell>
        <mxCell id="HBGhVWQaQl0VbPI2pzWm-75" style="edgeStyle=orthogonalEdgeStyle;rounded=0;orthogonalLoop=1;jettySize=auto;html=1;entryX=0.5;entryY=0;entryDx=0;entryDy=0;" edge="1" parent="1" source="26" target="27">
          <mxGeometry relative="1" as="geometry" />
        </mxCell>
        <mxCell id="26" value="Collect Feedback" style="rounded=1;arcSize=40;strokeWidth=2" parent="1" vertex="1">
          <mxGeometry x="3240" y="638" width="155" height="49" as="geometry" />
        </mxCell>
        <mxCell id="HBGhVWQaQl0VbPI2pzWm-78" style="edgeStyle=orthogonalEdgeStyle;rounded=0;orthogonalLoop=1;jettySize=auto;html=1;entryX=0.5;entryY=0;entryDx=0;entryDy=0;" edge="1" parent="1" source="27" target="21">
          <mxGeometry relative="1" as="geometry">
            <Array as="points">
              <mxPoint x="3646" y="900" />
              <mxPoint x="2360" y="900" />
              <mxPoint x="2360" y="127" />
              <mxPoint x="1982" y="127" />
            </Array>
          </mxGeometry>
        </mxCell>
        <mxCell id="27" value="Feedback Addressed?" style="rhombus;strokeWidth=2;whiteSpace=wrap;" parent="1" vertex="1">
          <mxGeometry x="3570" y="692.5" width="151" height="129" as="geometry" />
        </mxCell>
        <mxCell id="28" value="Publish Release" style="rounded=1;arcSize=40;strokeWidth=2" parent="1" vertex="1">
          <mxGeometry x="3930" y="638" width="146" height="49" as="geometry" />
        </mxCell>
        <mxCell id="29" value="" style="curved=1;startArrow=none;endArrow=block;exitX=0.89;exitY=-0.01;entryX=0;entryY=0.5;" parent="1" source="5" target="6" edge="1">
          <mxGeometry relative="1" as="geometry">
            <Array as="points">
              <mxPoint x="783" y="767" />
            </Array>
          </mxGeometry>
        </mxCell>
        <mxCell id="30" value="" style="curved=1;startArrow=none;endArrow=block;exitX=1;exitY=0.05;entryX=0;entryY=0.51;" parent="1" source="6" target="7" edge="1">
          <mxGeometry relative="1" as="geometry">
            <Array as="points">
              <mxPoint x="1007" y="706" />
            </Array>
          </mxGeometry>
        </mxCell>
        <mxCell id="31" value="" style="curved=1;startArrow=none;endArrow=block;exitX=0.66;exitY=0.01;entryX=0;entryY=0.5;" parent="1" source="7" target="8" edge="1">
          <mxGeometry relative="1" as="geometry">
            <Array as="points">
              <mxPoint x="1231" y="545" />
            </Array>
          </mxGeometry>
        </mxCell>
        <mxCell id="32" value="" style="curved=1;startArrow=none;endArrow=block;exitX=0.75;exitY=0;entryX=0.29;entryY=0;" parent="1" source="8" target="9" edge="1">
          <mxGeometry relative="1" as="geometry">
            <Array as="points">
              <mxPoint x="1442" y="431" />
            </Array>
          </mxGeometry>
        </mxCell>
        <mxCell id="33" value="Yes" style="curved=1;startArrow=none;endArrow=block;exitX=0.15;exitY=1.01;entryX=0.76;entryY=1.01;" parent="1" source="9" target="7" edge="1">
          <mxGeometry relative="1" as="geometry">
            <Array as="points">
              <mxPoint x="1442" y="801" />
              <mxPoint x="1231" y="801" />
            </Array>
          </mxGeometry>
        </mxCell>
        <mxCell id="34" value="No" style="curved=1;startArrow=none;endArrow=block;exitX=1;exitY=0.5;entryX=0;entryY=0.5;" parent="1" source="9" target="10" edge="1">
          <mxGeometry relative="1" as="geometry">
            <Array as="points" />
          </mxGeometry>
        </mxCell>
        <mxCell id="35" value="" style="curved=1;startArrow=none;endArrow=block;exitX=1;exitY=0.19;entryX=0;entryY=0.29;" parent="1" source="10" target="11" edge="1">
          <mxGeometry relative="1" as="geometry">
            <Array as="points">
              <mxPoint x="1879" y="619" />
            </Array>
          </mxGeometry>
        </mxCell>
        <mxCell id="36" value="Yes" style="curved=1;startArrow=none;endArrow=block;exitX=1;exitY=0.5;entryX=0.42;entryY=1.01;" parent="1" source="11" target="12" edge="1">
          <mxGeometry relative="1" as="geometry">
            <Array as="points">
              <mxPoint x="2111" y="663" />
            </Array>
          </mxGeometry>
        </mxCell>
        <mxCell id="37" value="No" style="curved=1;startArrow=none;endArrow=block;exitX=0;exitY=0.68;entryX=1;entryY=0.78;" parent="1" source="11" target="10" edge="1">
          <mxGeometry relative="1" as="geometry">
            <Array as="points">
              <mxPoint x="1879" y="700" />
            </Array>
          </mxGeometry>
        </mxCell>
        <mxCell id="38" value="" style="curved=1;startArrow=none;endArrow=block;exitX=1;exitY=0.5;entryX=0;entryY=0.5;" parent="1" source="13" target="14" edge="1">
          <mxGeometry relative="1" as="geometry">
            <Array as="points" />
          </mxGeometry>
        </mxCell>
        <mxCell id="39" value="" style="curved=1;startArrow=none;endArrow=block;exitX=1;exitY=0.5;entryX=0;entryY=0.5;" parent="1" source="14" target="15" edge="1">
          <mxGeometry relative="1" as="geometry">
            <Array as="points" />
          </mxGeometry>
        </mxCell>
        <mxCell id="40" value="" style="curved=1;startArrow=none;endArrow=block;exitX=1;exitY=0.07;entryX=0;entryY=0.5;" parent="1" source="15" target="16" edge="1">
          <mxGeometry relative="1" as="geometry">
            <Array as="points">
              <mxPoint x="783" y="118" />
            </Array>
          </mxGeometry>
        </mxCell>
        <mxCell id="41" value="" style="curved=1;startArrow=none;endArrow=block;exitX=1;exitY=0.5;entryX=0;entryY=0.5;" parent="1" source="16" target="17" edge="1">
          <mxGeometry relative="1" as="geometry">
            <Array as="points" />
          </mxGeometry>
        </mxCell>
        <mxCell id="42" value="Passed" style="curved=1;startArrow=none;endArrow=block;exitX=1;exitY=0.5;entryX=0;entryY=0.5;" parent="1" source="17" target="18" edge="1">
          <mxGeometry relative="1" as="geometry">
            <Array as="points" />
          </mxGeometry>
        </mxCell>
        <mxCell id="43" value="" style="curved=1;startArrow=none;endArrow=block;exitX=1;exitY=0.5;entryX=0;entryY=0.5;" parent="1" source="18" target="19" edge="1">
          <mxGeometry relative="1" as="geometry">
            <Array as="points" />
          </mxGeometry>
        </mxCell>
        <mxCell id="44" value="" style="curved=1;startArrow=none;endArrow=block;exitX=1.01;exitY=0.5;entryX=0;entryY=0.26;" parent="1" source="19" target="20" edge="1">
          <mxGeometry relative="1" as="geometry">
            <Array as="points">
              <mxPoint x="1648" y="118" />
            </Array>
          </mxGeometry>
        </mxCell>
        <mxCell id="46" value="" style="curved=1;startArrow=none;endArrow=block;exitX=1.01;exitY=0.5;entryX=0;entryY=0.51;" parent="1" source="21" target="12" edge="1">
          <mxGeometry relative="1" as="geometry">
            <Array as="points">
              <mxPoint x="2071" y="171" />
              <mxPoint x="2111" y="440" />
            </Array>
          </mxGeometry>
        </mxCell>
        <mxCell id="47" value="No" style="curved=1;startArrow=none;endArrow=block;exitX=0;exitY=0.74;entryX=1;entryY=0.92;" parent="1" source="20" target="15" edge="1">
          <mxGeometry relative="1" as="geometry">
            <Array as="points">
              <mxPoint x="1648" y="225" />
              <mxPoint x="783" y="225" />
            </Array>
          </mxGeometry>
        </mxCell>
        <mxCell id="48" value="" style="curved=1;startArrow=none;endArrow=block;exitX=0.71;exitY=0.01;entryX=0;entryY=0.5;" parent="1" source="12" target="22" edge="1">
          <mxGeometry relative="1" as="geometry">
            <Array as="points">
              <mxPoint x="2352" y="367" />
            </Array>
          </mxGeometry>
        </mxCell>
        <mxCell id="49" value="Yes" style="curved=1;startArrow=none;endArrow=block;exitX=1;exitY=0.5;entryX=0.468;entryY=-0.012;entryDx=0;entryDy=0;entryPerimeter=0;" parent="1" source="22" target="6xC_1-eXzZIWzVH8nCW7-87" edge="1">
          <mxGeometry relative="1" as="geometry">
            <Array as="points">
              <mxPoint x="2695" y="367" />
            </Array>
          </mxGeometry>
        </mxCell>
        <mxCell id="50" value="" style="curved=1;startArrow=none;endArrow=block;exitX=1;exitY=0.5;entryX=0;entryY=0.5;" parent="1" source="23" target="24" edge="1">
          <mxGeometry relative="1" as="geometry">
            <Array as="points" />
          </mxGeometry>
        </mxCell>
        <mxCell id="54" value="Yes" style="curved=1;startArrow=none;endArrow=block;exitX=1;exitY=0.5;entryX=0;entryY=0.5;" parent="1" source="27" target="28" edge="1">
          <mxGeometry relative="1" as="geometry">
            <Array as="points" />
          </mxGeometry>
        </mxCell>
        <mxCell id="6xC_1-eXzZIWzVH8nCW7-72" value="ex: feature/some-cool-feat&lt;br&gt;&lt;div&gt;bugix/solving-a-bug&lt;/div&gt;&lt;div&gt;&lt;br&gt;&lt;/div&gt;" style="whiteSpace=wrap;html=1;shape=mxgraph.basic.cloud_callout" parent="1" vertex="1">
          <mxGeometry x="360" y="46" width="150" height="96" as="geometry" />
        </mxCell>
        <mxCell id="6xC_1-eXzZIWzVH8nCW7-78" value="" style="edgeStyle=orthogonalEdgeStyle;rounded=0;orthogonalLoop=1;jettySize=auto;html=1;entryX=0.5;entryY=1;entryDx=0;entryDy=0;" parent="1" source="6xC_1-eXzZIWzVH8nCW7-73" target="6xC_1-eXzZIWzVH8nCW7-77" edge="1">
          <mxGeometry relative="1" as="geometry" />
        </mxCell>
        <mxCell id="HBGhVWQaQl0VbPI2pzWm-72" style="edgeStyle=orthogonalEdgeStyle;rounded=0;orthogonalLoop=1;jettySize=auto;html=1;" edge="1" parent="1" source="6xC_1-eXzZIWzVH8nCW7-73" target="HBGhVWQaQl0VbPI2pzWm-70">
          <mxGeometry relative="1" as="geometry" />
        </mxCell>
        <mxCell id="6xC_1-eXzZIWzVH8nCW7-73" value="Generate .deb for&lt;br&gt;FC, MC, Msgs" style="shape=process;whiteSpace=wrap;html=1;backgroundOutline=1;rounded=1;arcSize=40;strokeWidth=2;" parent="1" vertex="1">
          <mxGeometry x="2781" y="761.5" width="120" height="60" as="geometry" />
        </mxCell>
        <mxCell id="6xC_1-eXzZIWzVH8nCW7-77" value="For amd&lt;br&gt;(local machine)" style="shape=trapezoid;perimeter=trapezoidPerimeter;whiteSpace=wrap;html=1;fixedSize=1;rounded=1;arcSize=40;strokeWidth=2;" parent="1" vertex="1">
          <mxGeometry x="2600" y="707" width="120" height="60" as="geometry" />
        </mxCell>
        <mxCell id="6xC_1-eXzZIWzVH8nCW7-79" value="" style="shape=trapezoid;perimeter=trapezoidPerimeter;whiteSpace=wrap;html=1;fixedSize=1;rounded=1;arcSize=40;strokeWidth=2;rotation=-180;" parent="1" vertex="1">
          <mxGeometry x="2600" y="821.5" width="120" height="60" as="geometry" />
        </mxCell>
        <mxCell id="6xC_1-eXzZIWzVH8nCW7-83" style="edgeStyle=orthogonalEdgeStyle;rounded=0;orthogonalLoop=1;jettySize=auto;html=1;entryX=0.5;entryY=1;entryDx=0;entryDy=0;" parent="1" source="6xC_1-eXzZIWzVH8nCW7-73" target="6xC_1-eXzZIWzVH8nCW7-79" edge="1">
          <mxGeometry relative="1" as="geometry" />
        </mxCell>
        <mxCell id="6xC_1-eXzZIWzVH8nCW7-84" value="&lt;div&gt;For arm&lt;/div&gt;&lt;div&gt;(server)&lt;br&gt;&lt;/div&gt;" style="text;html=1;align=center;verticalAlign=middle;whiteSpace=wrap;rounded=0;" parent="1" vertex="1">
          <mxGeometry x="2630" y="837" width="60" height="30" as="geometry" />
        </mxCell>
        <mxCell id="HBGhVWQaQl0VbPI2pzWm-67" style="edgeStyle=orthogonalEdgeStyle;rounded=0;orthogonalLoop=1;jettySize=auto;html=1;" edge="1" parent="1" source="6xC_1-eXzZIWzVH8nCW7-87" target="HBGhVWQaQl0VbPI2pzWm-63">
          <mxGeometry relative="1" as="geometry" />
        </mxCell>
        <mxCell id="6xC_1-eXzZIWzVH8nCW7-87" value="Update deployment repo&#xa;with latest corresponding branch sync&#xa;for all sobmodules" style="rounded=1;arcSize=40;strokeWidth=2" parent="1" vertex="1">
          <mxGeometry x="2731" y="480" width="220" height="70" as="geometry" />
        </mxCell>
        <mxCell id="HBGhVWQaQl0VbPI2pzWm-61" value="Build test,&lt;br&gt;Functional test.&lt;br&gt;SITL test&lt;div&gt;&lt;br&gt;&lt;/div&gt;" style="whiteSpace=wrap;html=1;shape=mxgraph.basic.cloud_callout" vertex="1" parent="1">
          <mxGeometry x="692" y="17" width="127" height="117" as="geometry" />
        </mxCell>
        <mxCell id="HBGhVWQaQl0VbPI2pzWm-62" style="edgeStyle=orthogonalEdgeStyle;rounded=0;orthogonalLoop=1;jettySize=auto;html=1;entryX=0.54;entryY=-0.001;entryDx=0;entryDy=0;entryPerimeter=0;" edge="1" parent="1" source="20" target="6xC_1-eXzZIWzVH8nCW7-87">
          <mxGeometry relative="1" as="geometry">
            <Array as="points">
              <mxPoint x="1900" y="171" />
              <mxPoint x="1900" y="70" />
              <mxPoint x="2850" y="70" />
            </Array>
          </mxGeometry>
        </mxCell>
        <mxCell id="HBGhVWQaQl0VbPI2pzWm-80" style="edgeStyle=orthogonalEdgeStyle;rounded=0;orthogonalLoop=1;jettySize=auto;html=1;" edge="1" parent="1" source="HBGhVWQaQl0VbPI2pzWm-63" target="28">
          <mxGeometry relative="1" as="geometry" />
        </mxCell>
        <mxCell id="HBGhVWQaQl0VbPI2pzWm-81" value="NO" style="edgeLabel;html=1;align=center;verticalAlign=middle;resizable=0;points=[];" vertex="1" connectable="0" parent="HBGhVWQaQl0VbPI2pzWm-80">
          <mxGeometry x="-0.3694" y="1" relative="1" as="geometry">
            <mxPoint x="-263" y="1" as="offset" />
          </mxGeometry>
        </mxCell>
        <mxCell id="HBGhVWQaQl0VbPI2pzWm-63" value="Main?" style="rhombus;whiteSpace=wrap;html=1;" vertex="1" parent="1">
          <mxGeometry x="3020" y="475" width="80" height="80" as="geometry" />
        </mxCell>
        <mxCell id="HBGhVWQaQl0VbPI2pzWm-68" style="edgeStyle=orthogonalEdgeStyle;rounded=0;orthogonalLoop=1;jettySize=auto;html=1;entryX=0.49;entryY=0.064;entryDx=0;entryDy=0;entryPerimeter=0;" edge="1" parent="1" source="HBGhVWQaQl0VbPI2pzWm-63" target="23">
          <mxGeometry relative="1" as="geometry">
            <Array as="points">
              <mxPoint x="3060" y="580" />
              <mxPoint x="2839" y="580" />
            </Array>
          </mxGeometry>
        </mxCell>
        <mxCell id="HBGhVWQaQl0VbPI2pzWm-69" value="Yes" style="edgeLabel;html=1;align=center;verticalAlign=middle;resizable=0;points=[];" vertex="1" connectable="0" parent="HBGhVWQaQl0VbPI2pzWm-68">
          <mxGeometry x="-0.0998" y="1" relative="1" as="geometry">
            <mxPoint as="offset" />
          </mxGeometry>
        </mxCell>
        <mxCell id="HBGhVWQaQl0VbPI2pzWm-74" style="edgeStyle=orthogonalEdgeStyle;rounded=0;orthogonalLoop=1;jettySize=auto;html=1;" edge="1" parent="1" source="HBGhVWQaQl0VbPI2pzWm-70" target="25">
          <mxGeometry relative="1" as="geometry" />
        </mxCell>
        <mxCell id="HBGhVWQaQl0VbPI2pzWm-70" value="Robots Compatibality&#xa;Test" style="rounded=1;arcSize=40;strokeWidth=2" vertex="1" parent="1">
          <mxGeometry x="2997" y="767" width="151" height="49" as="geometry" />
        </mxCell>
        <mxCell id="HBGhVWQaQl0VbPI2pzWm-73" style="edgeStyle=orthogonalEdgeStyle;rounded=0;orthogonalLoop=1;jettySize=auto;html=1;entryX=-0.004;entryY=0.553;entryDx=0;entryDy=0;entryPerimeter=0;" edge="1" parent="1" source="HBGhVWQaQl0VbPI2pzWm-70" target="26">
          <mxGeometry relative="1" as="geometry" />
        </mxCell>
        <mxCell id="HBGhVWQaQl0VbPI2pzWm-76" style="edgeStyle=orthogonalEdgeStyle;rounded=0;orthogonalLoop=1;jettySize=auto;html=1;entryX=0.451;entryY=1.01;entryDx=0;entryDy=0;entryPerimeter=0;" edge="1" parent="1" source="27" target="25">
          <mxGeometry relative="1" as="geometry">
            <Array as="points">
              <mxPoint x="3646" y="900" />
              <mxPoint x="3314" y="900" />
            </Array>
          </mxGeometry>
        </mxCell>
        <mxCell id="HBGhVWQaQl0VbPI2pzWm-77" value="No" style="edgeLabel;html=1;align=center;verticalAlign=middle;resizable=0;points=[];" vertex="1" connectable="0" parent="HBGhVWQaQl0VbPI2pzWm-76">
          <mxGeometry x="-0.1463" y="1" relative="1" as="geometry">
            <mxPoint as="offset" />
          </mxGeometry>
        </mxCell>
        <mxCell id="45" value="Yes" style="curved=1;startArrow=none;endArrow=block;exitX=1;exitY=0.5;entryX=0;entryY=0.5;entryDx=0;entryDy=0;" parent="1" target="21" edge="1">
          <mxGeometry x="-0.2326" y="1" relative="1" as="geometry">
            <Array as="points" />
            <mxPoint x="1837" y="171.5" as="sourcePoint" />
            <mxPoint x="1923" y="171.5" as="targetPoint" />
            <mxPoint y="-1" as="offset" />
          </mxGeometry>
        </mxCell>
      </root>
    </mxGraphModel>
  </diagram>
</mxfile>
